<?xml version="1.0" encoding="UTF-8"?>
<svg version="1.1" xmlns="http://www.w3.org/2000/svg" width="16" height="16">
<path d="M0 0 C5.28 0 10.56 0 16 0 C16 5.28 16 10.56 16 16 C10.72 16 5.44 16 0 16 C0 10.72 0 5.44 0 0 Z " fill="#006909" transform="translate(0,0)"/>
<path d="M0 0 C2.31 0 4.62 0 7 0 C7 5.28 7 10.56 7 16 C4.69 16 2.38 16 0 16 C0 15.01 0 14.02 0 13 C1.65 13 3.3 13 5 13 C4.6390625 12.22914062 4.278125 11.45828125 3.90625 10.6640625 C3.4421875 9.66117188 2.978125 8.65828125 2.5 7.625 C1.80390625 6.12839844 1.80390625 6.12839844 1.09375 4.6015625 C0 2 0 2 0 0 Z " fill="#343635" transform="translate(9,0)"/>
<path d="M0 0 C2.31 0 4.62 0 7 0 C5.58192622 4.47238653 3.88695626 8.71146306 2 13 C3.65 13 5.3 13 7 13 C7 13.99 7 14.98 7 16 C4.69 16 2.38 16 0 16 C0 10.72 0 5.44 0 0 Z " fill="#343635" transform="translate(0,0)"/>
</svg>
